<svg width="754" height="91" viewBox="0 0 754 91" xmlns="http://www.w3.org/2000/svg"><g id="svgGroup" stroke-linecap="round" fill-rule="evenodd" font-size="18pt" stroke="#ffffff" stroke-width="3" fill="#ffffff" style="stroke:#ffffff;stroke-width:3;fill:#ffffff"><path d="M 333.838 11.524 L 333.887 4.346 L 333.936 1.953 A 4.245 4.245 0 0 1 334.028 1.391 Q 334.095 1.11 334.199 0.886 A 1.739 1.739 0 0 1 334.448 0.489 Q 334.863 0 335.938 0 L 344.19 0 Q 346.192 0 346.192 2.051 Q 346.192 4.737 346.118 7.398 A 557.725 557.725 0 0 1 345.947 12.696 A 1391.589 1391.589 0 0 0 345.801 32.862 A 607.091 607.091 0 0 0 345.825 38.282 A 612.523 612.523 0 0 1 345.85 43.75 A 27.734 27.734 0 0 1 344.938 50.826 A 22.343 22.343 0 0 1 342.066 57.276 A 25.015 25.015 0 0 1 332.129 66.089 A 29.662 29.662 0 0 1 320.691 69.114 A 35.47 35.47 0 0 1 318.36 69.19 A 31.672 31.672 0 0 1 308.839 67.79 A 28.719 28.719 0 0 1 304.614 66.089 A 24.799 24.799 0 0 1 294.678 57.276 A 22.882 22.882 0 0 1 291.237 47.809 A 29.67 29.67 0 0 1 290.967 43.75 A 612.523 612.523 0 0 1 290.991 38.282 A 607.091 607.091 0 0 0 291.016 32.862 A 1391.589 1391.589 0 0 0 290.869 12.696 Q 290.821 10.059 290.723 7.398 A 145.784 145.784 0 0 1 290.625 2.051 A 3.037 3.037 0 0 1 290.721 1.252 Q 291.063 0 292.627 0 L 301.074 0 A 3.698 3.698 0 0 1 301.592 0.034 Q 302.184 0.118 302.492 0.412 A 1.019 1.019 0 0 1 302.564 0.489 A 1.797 1.797 0 0 1 302.847 0.963 Q 303.018 1.372 303.076 1.953 L 303.125 4.346 L 303.174 11.524 Q 303.223 16.602 303.247 21.68 A 2112.527 2112.527 0 0 1 303.272 31.836 A 694.393 694.393 0 0 1 303.247 37.671 A 688.582 688.582 0 0 0 303.223 43.457 A 15.156 15.156 0 0 0 303.651 47.144 A 11.702 11.702 0 0 0 305.347 50.952 A 13.699 13.699 0 0 0 310.987 55.689 A 17.773 17.773 0 0 0 318.348 57.323 A 20.436 20.436 0 0 0 318.604 57.325 A 19.007 19.007 0 0 0 323.989 56.593 A 15.388 15.388 0 0 0 329.395 53.76 A 11.557 11.557 0 0 0 333.515 46.628 A 17.442 17.442 0 0 0 333.789 43.457 A 688.582 688.582 0 0 0 333.765 37.671 A 694.393 694.393 0 0 1 333.74 31.836 A 2112.527 2112.527 0 0 1 333.765 21.68 Q 333.789 16.602 333.838 11.524 Z M 358.399 24.17 L 364.99 24.17 A 2.716 2.716 0 0 1 365.768 24.273 Q 366.634 24.531 366.899 25.446 A 2.871 2.871 0 0 1 366.992 25.928 Q 367.139 26.905 367.237 27.881 L 367.432 29.834 A 0.478 0.478 0 0 0 367.435 29.884 Q 367.448 29.995 367.503 30.27 A 18.698 18.698 0 0 0 367.53 30.396 Q 367.594 30.702 367.723 30.806 A 0.23 0.23 0 0 0 367.871 30.86 Q 368.065 30.86 368.243 30.675 A 1.139 1.139 0 0 0 368.335 30.567 A 22.428 22.428 0 0 0 368.437 30.429 Q 368.576 30.242 368.649 30.133 A 2.999 2.999 0 0 0 368.653 30.127 A 17.054 17.054 0 0 1 373.852 25.618 A 16.435 16.435 0 0 1 375.781 24.707 A 23.82 23.82 0 0 1 384.619 23.047 A 15.925 15.925 0 0 1 389.989 23.94 A 14.903 14.903 0 0 1 391.626 24.634 A 13.117 13.117 0 0 1 396.778 29.126 A 11.43 11.43 0 0 1 398.601 34.044 A 14.842 14.842 0 0 1 398.731 36.035 Q 398.731 43.604 398.902 51.221 Q 399.072 58.838 399.072 66.407 A 3.037 3.037 0 0 1 398.977 67.206 Q 398.635 68.457 397.071 68.457 L 389.405 68.457 A 2.489 2.489 0 0 1 388.595 68.336 Q 387.817 68.069 387.542 67.214 A 3.247 3.247 0 0 1 387.403 66.455 A 45.435 45.435 0 0 1 387.293 63.292 A 46.143 46.143 0 0 1 387.305 62.232 A 92.152 92.152 0 0 0 387.329 60.114 A 90.568 90.568 0 0 0 387.305 58.008 A 822.134 822.134 0 0 1 387.256 49.073 L 387.256 40.186 A 9.556 9.556 0 0 0 387.061 38.188 Q 386.793 36.939 386.161 36.006 A 5.212 5.212 0 0 0 385.254 34.986 A 6.852 6.852 0 0 0 382.325 33.517 Q 381.297 33.269 380.093 33.253 A 12.537 12.537 0 0 0 379.932 33.252 A 11.089 11.089 0 0 0 376.709 33.7 A 8.832 8.832 0 0 0 373.12 35.791 A 15.433 15.433 0 0 0 369.354 41.525 A 18.107 18.107 0 0 0 369.165 42.041 A 23.133 23.133 0 0 0 368.011 46.962 A 20.16 20.16 0 0 0 367.871 49.317 A 749.866 749.866 0 0 1 367.822 57.886 A 131994.417 131994.417 0 0 0 367.725 66.455 A 2.882 2.882 0 0 1 367.626 67.248 Q 367.279 68.457 365.723 68.457 L 358.057 68.457 Q 356.055 68.457 356.055 66.407 Q 356.055 63.672 356.128 60.962 A 610.474 610.474 0 0 0 356.25 55.567 A 1782.55 1782.55 0 0 0 356.397 32.715 L 356.397 26.172 A 2.882 2.882 0 0 1 356.496 25.38 Q 356.842 24.17 358.399 24.17 Z M 2.051 0 L 23.975 0 Q 29.395 0 34.644 1.172 A 31.982 31.982 0 0 1 42.545 4.027 A 29.471 29.471 0 0 1 44.19 4.956 A 19.642 19.642 0 0 1 51.026 11.89 Q 53.485 16.076 53.562 22.118 A 30.796 30.796 0 0 1 53.565 22.51 A 22.689 22.689 0 0 1 53.274 26.085 A 24.868 24.868 0 0 1 53.272 26.099 A 24.924 24.924 0 0 1 52.442 29.639 A 21.77 21.77 0 0 1 49.857 35.138 A 18.319 18.319 0 0 1 46.387 39.038 Q 42.188 42.578 36.695 44.141 Q 31.201 45.703 25.537 45.703 L 13.184 45.703 A 0.844 0.844 0 0 0 12.952 45.732 Q 12.692 45.807 12.623 46.072 A 0.863 0.863 0 0 0 12.598 46.289 L 12.451 66.504 Q 12.451 68.061 11.179 68.377 A 3.036 3.036 0 0 1 10.449 68.457 L 2.002 68.457 Q 0 68.457 0 66.407 Q 0 63.77 0.098 61.109 Q 0.196 58.448 0.244 55.811 A 1699.761 1699.761 0 0 0 0.391 33.448 A 1494.372 1494.372 0 0 0 0.244 12.5 A 586.909 586.909 0 0 0 0.122 7.276 Q 0.049 4.639 0.049 2.051 A 3.037 3.037 0 0 1 0.145 1.252 Q 0.487 0 2.051 0 Z M 182.977 69.007 A 30.291 30.291 0 0 0 189.258 69.629 A 33.232 33.232 0 0 0 193.646 69.324 A 44.626 44.626 0 0 0 198.413 68.409 Q 203.369 67.188 206.836 64.795 A 4.749 4.749 0 0 0 206.979 64.684 A 4.169 4.169 0 0 0 207.52 64.16 A 1.175 1.175 0 0 0 207.768 63.671 A 1.615 1.615 0 0 0 207.813 63.282 A 0.867 0.867 0 0 0 207.795 63.123 Q 207.735 62.81 207.474 62.162 A 20.141 20.141 0 0 0 207.3 61.743 A 77.213 77.213 0 0 0 206.226 59.351 Q 205.787 58.416 205.572 58.003 A 5.747 5.747 0 0 0 205.469 57.813 A 4.257 4.257 0 0 0 205.43 57.73 A 3.781 3.781 0 0 0 204.859 56.861 A 1.182 1.182 0 0 0 204.232 56.492 A 1.802 1.802 0 0 0 203.809 56.446 A 1.608 1.608 0 0 0 203.595 56.46 A 1.796 1.796 0 0 0 203.125 56.592 Q 202.783 56.739 202.442 56.934 Q 199.854 58.399 197.193 59.375 A 15.358 15.358 0 0 1 195.663 59.847 A 17.117 17.117 0 0 1 191.455 60.352 A 16.153 16.153 0 0 1 184.131 58.643 A 12.275 12.275 0 0 1 182.135 57.396 A 12.743 12.743 0 0 1 178.76 53.418 Q 178.7 53.299 178.677 53.198 A 0.544 0.544 0 0 1 178.662 53.076 A 0.416 0.416 0 0 1 178.746 52.826 Q 178.798 52.755 178.883 52.692 A 1.119 1.119 0 0 1 179.053 52.588 A 250.398 250.398 0 0 1 189.307 48.706 Q 194.483 46.875 199.61 44.971 Q 201.367 44.287 203.223 43.701 A 30.716 30.716 0 0 0 203.454 43.627 A 28.008 28.008 0 0 0 206.738 42.334 A 3.483 3.483 0 0 0 207.217 42.093 A 2.54 2.54 0 0 0 207.691 41.724 A 1.086 1.086 0 0 0 207.893 41.441 Q 208.057 41.115 208.057 40.625 Q 208.057 40.374 208.031 40.229 A 0.669 0.669 0 0 0 208.008 40.137 A 30.24 30.24 0 0 0 206.445 35.049 A 22.291 22.291 0 0 0 201.489 27.539 A 15.224 15.224 0 0 0 200.789 26.891 Q 197.862 24.35 193.723 23.388 A 24.25 24.25 0 0 0 188.233 22.803 A 27.191 27.191 0 0 0 184.526 23.048 A 21.068 21.068 0 0 0 176.319 25.904 Q 171.24 29.004 168.457 34.326 A 23.594 23.594 0 0 0 166.555 39.245 A 27.651 27.651 0 0 0 165.674 46.338 A 30.345 30.345 0 0 0 166.095 51.497 A 22.505 22.505 0 0 0 168.604 58.741 A 20.116 20.116 0 0 0 176.831 66.797 A 23.116 23.116 0 0 0 182.977 69.007 Z M 262.988 4.785 L 270.655 4.785 A 2.882 2.882 0 0 1 271.447 4.885 Q 272.656 5.231 272.656 6.787 A 1423.643 1423.643 0 0 1 272.632 15.113 A 1431.992 1431.992 0 0 0 272.608 23.487 A 0.774 0.774 0 0 0 272.641 23.726 Q 272.723 23.976 273 24.046 A 0.999 0.999 0 0 0 273.242 24.073 L 280.908 24.073 A 2.882 2.882 0 0 1 281.701 24.172 Q 282.91 24.518 282.91 26.075 A 192.292 192.292 0 0 1 282.886 29.126 A 195.368 195.368 0 0 0 282.862 32.227 A 2.882 2.882 0 0 1 282.762 33.019 Q 282.416 34.229 280.86 34.229 L 273.242 34.229 Q 272.703 34.229 272.622 34.652 A 0.867 0.867 0 0 0 272.608 34.815 A 2562.94 2562.94 0 0 0 272.656 50.635 A 2562.94 2562.94 0 0 1 272.705 66.455 A 2.882 2.882 0 0 1 272.606 67.248 Q 272.26 68.457 270.703 68.457 L 262.94 68.457 A 2.882 2.882 0 0 1 262.147 68.358 Q 260.938 68.012 260.938 66.455 Q 260.938 58.545 261.011 50.635 Q 261.084 42.725 261.084 34.815 Q 261.084 34.106 260.124 34.106 A 2.735 2.735 0 0 0 260.059 34.107 Q 259.178 34.128 258.08 34.239 A 37.665 37.665 0 0 0 257.715 34.278 Q 256.772 34.382 255.978 34.237 A 4.451 4.451 0 0 1 255.371 34.082 A 1.374 1.374 0 0 1 254.47 33.138 Q 254.381 32.861 254.356 32.512 A 3.987 3.987 0 0 1 254.346 32.227 L 254.346 26.075 A 2.882 2.882 0 0 1 254.445 25.282 Q 254.792 24.073 256.348 24.073 L 260.449 24.073 Q 260.989 24.073 261.07 23.649 A 0.867 0.867 0 0 0 261.084 23.487 A 716.028 716.028 0 0 0 261.035 15.113 A 711.853 711.853 0 0 1 260.987 6.787 A 2.882 2.882 0 0 1 261.086 5.995 Q 261.432 4.785 262.988 4.785 Z M 248.438 27.979 L 246.192 33.643 A 3.022 3.022 0 0 1 245.872 34.257 Q 245.621 34.622 245.287 34.81 A 1.61 1.61 0 0 1 244.483 35.01 Q 244.042 35.01 243.521 34.811 A 4.114 4.114 0 0 1 243.408 34.766 Q 241.797 34.229 240.186 33.863 A 14.935 14.935 0 0 0 236.865 33.496 Q 232.163 33.496 229.394 35.847 A 8.89 8.89 0 0 0 228.101 37.207 A 13.559 13.559 0 0 0 225.51 43.241 A 18.497 18.497 0 0 0 225.244 46.436 Q 225.244 51.758 227.954 55.396 A 8.653 8.653 0 0 0 232.951 58.642 Q 234.406 59.009 236.144 59.032 A 17.655 17.655 0 0 0 236.377 59.034 A 14.257 14.257 0 0 0 239.942 58.594 A 34.467 34.467 0 0 0 243.36 57.52 L 243.946 57.325 A 1.919 1.919 0 0 1 244.412 57.233 A 2.272 2.272 0 0 1 244.58 57.227 A 1.698 1.698 0 0 1 245.013 57.279 A 1.169 1.169 0 0 1 245.63 57.666 Q 245.996 58.106 246.24 58.643 A 4.866 4.866 0 0 1 246.327 58.829 Q 246.537 59.299 246.986 60.456 A 123.321 123.321 0 0 1 247.022 60.547 Q 247.608 62.061 248.12 63.526 A 39.068 39.068 0 0 1 248.295 64.034 Q 248.614 64.989 248.632 65.255 A 0.434 0.434 0 0 1 248.633 65.284 Q 248.633 66.3 247.125 67.054 A 6.656 6.656 0 0 1 246.948 67.139 A 15.215 15.215 0 0 1 245.224 67.807 Q 244.331 68.096 243.305 68.325 A 26.393 26.393 0 0 1 242.92 68.409 A 47.887 47.887 0 0 1 240.086 68.914 A 39.629 39.629 0 0 1 238.477 69.117 A 77.441 77.441 0 0 1 237.503 69.213 Q 236.299 69.323 235.645 69.335 A 8.251 8.251 0 0 1 235.498 69.336 A 28.026 28.026 0 0 1 228.952 68.615 A 18.79 18.79 0 0 1 219.434 63.233 A 20.596 20.596 0 0 1 214.263 53.064 A 29.839 29.839 0 0 1 213.672 46.973 A 29.756 29.756 0 0 1 214.514 39.77 A 25.021 25.021 0 0 1 216.333 34.766 A 20.79 20.79 0 0 1 224.024 26.172 A 20.262 20.262 0 0 1 231.487 23.373 A 27.104 27.104 0 0 1 236.084 22.998 A 28.134 28.134 0 0 1 239.299 23.191 A 36.202 36.202 0 0 1 241.992 23.609 A 21.348 21.348 0 0 1 245.101 24.442 A 16.547 16.547 0 0 1 247.559 25.537 A 3.589 3.589 0 0 1 247.992 25.791 A 2.663 2.663 0 0 1 248.364 26.099 A 1.029 1.029 0 0 1 248.625 26.556 Q 248.671 26.718 248.68 26.911 A 2.049 2.049 0 0 1 248.682 27.002 A 2.078 2.078 0 0 1 248.539 27.75 A 2.552 2.552 0 0 1 248.438 27.979 Z M 148.535 24.17 L 156.055 24.17 A 2.882 2.882 0 0 1 156.847 24.269 Q 158.057 24.616 158.057 26.172 A 4673.071 4673.071 0 0 0 158.106 47.51 A 4673.071 4673.071 0 0 1 158.155 68.848 Q 158.155 74.707 156.421 80.249 A 15.766 15.766 0 0 1 150.351 88.496 A 20.272 20.272 0 0 1 149.365 89.16 Q 148.93 89.415 148.548 89.48 A 1.525 1.525 0 0 1 148.291 89.502 A 1.614 1.614 0 0 1 147.146 89.028 A 2.457 2.457 0 0 1 146.875 88.721 A 10.172 10.172 0 0 0 146.608 88.382 Q 146.178 87.858 145.383 86.98 A 91.243 91.243 0 0 0 145.191 86.768 Q 143.946 85.401 142.847 83.985 A 14.399 14.399 0 0 1 142.474 83.483 Q 141.879 82.644 141.772 82.172 A 0.86 0.86 0 0 1 141.748 81.983 A 1.537 1.537 0 0 1 141.968 81.177 Q 142.188 80.811 142.432 80.469 A 20.436 20.436 0 0 0 144.553 77.046 A 17.041 17.041 0 0 0 145.508 74.634 A 20.955 20.955 0 0 0 146.362 70.053 A 25.1 25.1 0 0 0 146.436 68.116 A 4514.214 4514.214 0 0 1 146.485 47.119 A 4503.735 4503.735 0 0 0 146.533 26.172 A 2.882 2.882 0 0 1 146.633 25.38 Q 146.979 24.17 148.535 24.17 Z M 63.086 24.17 L 69.629 24.17 Q 71.485 24.17 71.631 25.977 L 72.119 31.543 A 0.265 0.265 0 0 0 72.121 31.565 Q 72.132 31.675 72.217 32.251 A 2.8 2.8 0 0 0 72.258 32.471 Q 72.335 32.805 72.469 32.885 A 0.172 0.172 0 0 0 72.559 32.91 A 0.281 0.281 0 0 0 72.718 32.855 Q 72.881 32.744 73.055 32.405 A 3.18 3.18 0 0 0 73.071 32.373 L 73.389 31.739 A 20.113 20.113 0 0 1 75.534 28.474 A 15.446 15.446 0 0 1 78.272 25.83 Q 81.153 23.682 85.547 23.682 A 16.105 16.105 0 0 1 86.318 23.702 Q 86.718 23.721 87.178 23.759 A 38.606 38.606 0 0 1 88.159 23.853 A 2.567 2.567 0 0 1 88.811 24.002 Q 89.549 24.288 89.705 25.048 A 2.197 2.197 0 0 1 89.746 25.489 Q 89.746 26.041 89.58 27.065 A 30.348 30.348 0 0 1 89.453 27.784 A 77.631 77.631 0 0 1 88.794 30.933 A 1204.523 1204.523 0 0 1 88.622 31.679 Q 88.455 32.4 88.334 32.919 A 281.25 281.25 0 0 1 88.233 33.35 Q 88.08 33.999 87.793 34.424 A 2.045 2.045 0 0 1 87.622 34.644 Q 87.207 35.108 86.231 35.108 Q 85.742 35.108 85.279 35.034 A 5.959 5.959 0 0 0 84.67 34.972 A 7.296 7.296 0 0 0 84.278 34.961 Q 80.42 34.961 77.783 37.378 Q 75.147 39.795 73.828 43.311 A 20.619 20.619 0 0 0 72.652 47.991 A 18.098 18.098 0 0 0 72.51 50.244 L 72.51 66.455 A 2.882 2.882 0 0 1 72.411 67.248 Q 72.064 68.457 70.508 68.457 L 62.94 68.457 Q 60.938 68.457 60.938 66.407 A 1556.638 1556.638 0 0 1 61.011 51.294 Q 61.084 43.75 61.084 36.231 L 61.084 26.172 A 2.882 2.882 0 0 1 61.183 25.38 Q 61.53 24.17 63.086 24.17 Z M 93.326 39.455 A 27.087 27.087 0 0 0 92.432 46.534 A 29.282 29.282 0 0 0 92.769 51.059 A 22.331 22.331 0 0 0 95.288 58.545 A 20.207 20.207 0 0 0 103.296 66.529 Q 108.447 69.385 115.332 69.385 A 28.22 28.22 0 0 0 119.926 69.025 A 21.215 21.215 0 0 0 127.32 66.407 Q 132.373 63.428 135.156 58.179 Q 137.94 52.93 137.94 46.143 A 29.327 29.327 0 0 0 137.841 43.717 A 24.1 24.1 0 0 0 135.132 34.278 Q 132.324 29.004 127.295 25.952 A 20.266 20.266 0 0 0 121.793 23.652 A 25.099 25.099 0 0 0 115.528 22.901 A 27.855 27.855 0 0 0 112.412 23.071 A 22.162 22.162 0 0 0 103.467 26.001 Q 98.242 29.102 95.337 34.424 A 22.912 22.912 0 0 0 93.326 39.455 Z M 407.437 39.455 A 27.087 27.087 0 0 0 406.543 46.534 A 29.282 29.282 0 0 0 406.881 51.059 A 22.331 22.331 0 0 0 409.4 58.545 A 20.207 20.207 0 0 0 417.407 66.529 Q 422.559 69.385 429.444 69.385 A 28.22 28.22 0 0 0 434.037 69.025 A 21.215 21.215 0 0 0 441.431 66.407 Q 446.485 63.428 449.268 58.179 Q 452.051 52.93 452.051 46.143 A 29.327 29.327 0 0 0 451.952 43.717 A 24.1 24.1 0 0 0 449.243 34.278 Q 446.436 29.004 441.406 25.952 A 20.266 20.266 0 0 0 435.904 23.652 A 25.099 25.099 0 0 0 429.639 22.901 A 27.855 27.855 0 0 0 426.523 23.071 A 22.162 22.162 0 0 0 417.578 26.001 Q 412.354 29.102 409.448 34.424 A 22.912 22.912 0 0 0 407.437 39.455 Z M 12.647 33.887 L 25.684 33.887 A 23.134 23.134 0 0 0 30.213 33.425 A 26.724 26.724 0 0 0 31.519 33.13 A 17.241 17.241 0 0 0 37.012 30.689 Q 39.502 29.004 40.625 26.221 A 12.302 12.302 0 0 0 40.906 25.44 A 16.5 16.5 0 0 0 41.162 24.561 Q 41.406 23.633 41.406 22.852 A 4.763 4.763 0 0 0 41.372 22.301 Q 41.315 21.811 41.162 21.216 A 24.859 24.859 0 0 0 40.979 20.54 Q 40.884 20.207 40.788 19.916 A 13.155 13.155 0 0 0 40.674 19.58 A 10.059 10.059 0 0 0 37.183 15.088 Q 34.815 13.379 31.909 12.574 A 21.837 21.837 0 0 0 27.532 11.812 A 19.566 19.566 0 0 0 26.221 11.768 L 12.549 11.768 Q 12.598 17.285 12.622 22.827 A 2510.559 2510.559 0 0 1 12.647 33.887 Z M 115.283 32.764 A 11.508 11.508 0 0 0 112.37 33.116 A 8.791 8.791 0 0 0 109.082 34.742 A 12.335 12.335 0 0 0 105.322 39.795 Q 104.053 42.871 104.053 46.241 Q 104.053 49.414 105.396 52.344 Q 106.738 55.274 109.229 57.129 A 9.36 9.36 0 0 0 114.143 58.944 A 11.881 11.881 0 0 0 115.137 58.985 A 12.103 12.103 0 0 0 117.947 58.674 A 8.874 8.874 0 0 0 121.314 57.105 A 11.619 11.619 0 0 0 125.025 52.246 A 16.291 16.291 0 0 0 126.27 45.899 A 16.224 16.224 0 0 0 125.025 39.624 Q 123.78 36.621 121.338 34.693 A 8.859 8.859 0 0 0 117.146 32.904 A 11.954 11.954 0 0 0 115.283 32.764 Z M 429.395 32.764 A 11.508 11.508 0 0 0 426.481 33.116 A 8.791 8.791 0 0 0 423.194 34.742 A 12.335 12.335 0 0 0 419.434 39.795 Q 418.164 42.871 418.164 46.241 Q 418.164 49.414 419.507 52.344 Q 420.85 55.274 423.34 57.129 A 9.36 9.36 0 0 0 428.254 58.944 A 11.881 11.881 0 0 0 429.248 58.985 A 12.103 12.103 0 0 0 432.058 58.674 A 8.874 8.874 0 0 0 435.425 57.105 A 11.619 11.619 0 0 0 439.136 52.246 A 16.291 16.291 0 0 0 440.381 45.899 A 16.224 16.224 0 0 0 439.136 39.624 Q 437.891 36.621 435.449 34.693 A 8.859 8.859 0 0 0 431.257 32.904 A 11.954 11.954 0 0 0 429.395 32.764 Z M 177.002 45.85 L 186.865 42.432 Q 191.797 40.723 196.68 39.014 Q 195.459 36.328 193.286 34.326 A 7.511 7.511 0 0 0 188.357 32.333 A 9.758 9.758 0 0 0 187.94 32.325 A 11.312 11.312 0 0 0 185.084 32.668 A 8.509 8.509 0 0 0 181.787 34.326 A 11.904 11.904 0 0 0 178.174 39.429 Q 177.002 42.53 177.002 45.85 Z M 147.925 2.564 A 6.519 6.519 0 0 0 146.094 7.129 A 6.865 6.865 0 0 0 146.47 9.403 A 7.309 7.309 0 0 0 147.925 11.841 A 7.346 7.346 0 0 0 148.172 12.108 A 5.741 5.741 0 0 0 152.442 13.916 A 5.757 5.757 0 0 0 155.019 13.335 A 6.404 6.404 0 0 0 156.885 11.914 A 8.355 8.355 0 0 0 157.137 11.63 A 6.423 6.423 0 0 0 158.74 7.373 A 6.447 6.447 0 0 0 158.137 4.644 A 8.151 8.151 0 0 0 156.885 2.735 A 7.715 7.715 0 0 0 156.47 2.29 A 5.551 5.551 0 0 0 152.442 0.586 Q 149.756 0.586 147.925 2.564 Z" vector-effect="non-scaling-stroke"/></g></svg>